<svg width="109" height="24" viewBox="0 0 109 24" fill="none" xmlns="http://www.w3.org/2000/svg">
    <path d="M16 1C16.5523 1 17 1.44772 17 2V2.999L22 3V9L19.98 8.999L22.7467 16.5953C22.9105 17.032 23 17.5051 23 17.999C23 20.2082 21.2091 21.999 19 21.999C17.1368 21.999 15.5711 20.7251 15.1265 19.0008H10.8738C10.4295 20.7256 8.86357 22 7 22C5.05513 22 3.43445 20.612 3.07453 18.7725C2.43558 18.439 2 17.7704 2 17V12H11C11 12.5128 11.386 12.9355 11.8834 12.9933L12 13H14C14.5128 13 14.9355 12.614 14.9933 12.1166L15 12V3H12V1H16ZM7 16C5.89543 16 5 16.8954 5 18C5 19.1046 5.89543 20 7 20C8.10457 20 9 19.1046 9 18C9 16.8954 8.10457 16 7 16ZM19 16C17.8954 16 17 16.8954 17 18C17 19.1046 17.8954 20 19 20C20.1046 20 21 19.1046 21 18C21 16.8954 20.1046 16 19 16ZM10 3C10.5523 3 11 3.44772 11 4V11H2V4C2 3.44772 2.44772 3 3 3H10ZM20 5H17V7H20V5ZM9 5H4V6H9V5Z" fill="black"/>
    <path d="M29.7562 17.8691C28.456 17.8691 27.2581 17.8149 26.1625 17.7065L26.0722 15.9729L27.3905 15.6117V8.73138C27.3905 8.41836 27.3664 8.21369 27.3183 8.11738C27.2701 8.00903 27.1437 7.91272 26.9391 7.82844L26 7.30474L26.1084 5.80587C27.3604 5.70956 28.4138 5.63732 29.2686 5.58916C30.1234 5.52897 30.8096 5.49887 31.3273 5.49887C32.9887 5.49887 34.319 5.6915 35.3183 6.07675C36.3296 6.462 37.064 7.06998 37.5214 7.90068C37.991 8.73138 38.2257 9.83296 38.2257 11.2054C38.2257 12.9391 37.8284 14.3416 37.0339 15.4131C36.3236 16.3401 35.3785 16.9842 34.1986 17.3454C33.0308 17.6945 31.55 17.8691 29.7562 17.8691ZM32.0316 15.2867C33.0429 15.2867 33.8435 15.1663 34.4334 14.9255C34.5418 14.6245 34.6381 14.155 34.7223 13.5169C34.8187 12.8789 34.8668 12.2829 34.8668 11.7291C34.8668 10.3687 34.5839 9.36343 34.0181 8.71332C33.4643 8.06321 32.6155 7.73815 31.4718 7.73815C31.3153 7.73815 31.1708 7.74417 31.0384 7.75621C30.9059 7.76825 30.7795 7.78029 30.6591 7.79233V15.1964C31.1407 15.2566 31.5982 15.2867 32.0316 15.2867Z" fill="black"/>
    <path d="M41.6666 20C40.9804 19.6268 40.4627 19.3138 40.1136 19.0609C39.7644 18.8081 39.3611 18.4349 38.9036 17.9413L40.3664 16.1716V8.69526C40.3664 8.38224 40.3423 8.17758 40.2942 8.08126C40.246 7.97291 40.1196 7.8766 39.9149 7.79233L38.9939 7.25056L39.0662 5.64334H44.863L44.9533 7.48533L43.635 7.8465V13.6253C43.635 14.9014 43.5327 15.9488 43.328 16.7675C43.1234 17.5741 42.7562 18.3868 42.2264 19.2054L41.6666 20Z" fill="black"/>
    <path d="M48.1728 18.0497C47.3542 18.0497 46.698 17.8269 46.2044 17.3815C45.7108 16.924 45.464 16.3401 45.464 15.6298C45.464 14.6787 45.9396 13.9323 46.8907 13.3905C47.8538 12.8488 49.2503 12.5418 51.0803 12.4695C51.0803 11.9037 51.0321 11.4883 50.9358 11.2235C50.8515 10.9466 50.689 10.76 50.4482 10.6637C50.2195 10.5553 49.8643 10.5011 49.3828 10.5011C48.8892 10.5011 48.54 10.5192 48.3354 10.5553L47.5949 12.0181L46.2586 11.9278C46.0539 10.9646 45.9095 9.96539 45.8252 8.93002C46.4994 8.70128 47.2338 8.52069 48.0284 8.38826C48.835 8.25583 49.5874 8.18962 50.2857 8.18962C51.5618 8.18962 52.4768 8.44244 53.0306 8.94808C53.5844 9.44169 53.8613 10.2664 53.8613 11.4221V15.1964C53.8613 15.4131 53.8794 15.5636 53.9155 15.6479C53.9636 15.7321 54.06 15.8164 54.2044 15.9007L54.9268 16.316L54.8545 17.4357C53.458 17.7607 52.3564 17.9413 51.5498 17.9774C51.5257 17.9052 51.4896 17.7788 51.4414 17.5982C51.3933 17.4056 51.3512 17.225 51.315 17.0564C50.8455 17.3574 50.3278 17.5982 49.762 17.7788C49.2082 17.9594 48.6785 18.0497 48.1728 18.0497ZM49.3828 16.009C49.8643 16.009 50.4482 15.8465 51.1344 15.5214L51.0622 14.149C50.7733 14.1249 50.5806 14.1129 50.4843 14.1129C50.1593 14.1129 49.78 14.149 49.3466 14.2212C48.9132 14.2814 48.5701 14.3536 48.3173 14.4379C48.2812 14.5944 48.2631 14.7389 48.2631 14.8713C48.2631 15.2325 48.3594 15.5154 48.5521 15.7201C48.7567 15.9127 49.0336 16.009 49.3828 16.009Z" fill="black"/>
    <path d="M55.5717 16.0813L56.6913 15.7562V11.386C56.6913 11.1211 56.6732 10.9526 56.6371 10.8804C56.601 10.7961 56.5047 10.7058 56.3482 10.6095L55.5536 10.1761L55.6078 8.82167L56.0051 8.74944C57.5822 8.43642 58.7199 8.26787 59.4182 8.24379C59.5145 8.49661 59.5927 8.77351 59.6529 9.07449C60.3873 8.7374 60.9833 8.50865 61.4407 8.38826C61.9103 8.25583 62.3497 8.18962 62.759 8.18962C64.6732 8.18962 65.6304 9.33333 65.6304 11.6208V15.1603C65.6304 15.4131 65.6484 15.5816 65.6845 15.6659C65.7206 15.7502 65.823 15.8405 65.9915 15.9368L66.8583 16.4424L66.7861 17.7968H61.8019L61.7116 16.0813L62.5965 15.8284V12.4153C62.5965 11.8736 62.5784 11.4944 62.5423 11.2777C62.5062 11.0609 62.4039 10.8924 62.2353 10.772C62.0788 10.6516 61.7959 10.5914 61.3866 10.5914C60.9532 10.5914 60.4054 10.6576 59.7432 10.7901V15.1603C59.7432 15.4131 59.7613 15.5816 59.7974 15.6659C59.8335 15.7502 59.9298 15.8405 60.0863 15.9368L60.9712 16.4424L60.899 17.7968H55.662L55.5717 16.0813Z" fill="black"/>
    <path d="M67.5113 15.9729L68.8296 15.6117V8.69526C68.8296 8.38224 68.8055 8.17758 68.7573 8.08126C68.7092 7.97291 68.5828 7.8766 68.3781 7.79233L67.4752 7.26862L67.5293 5.64334H77.3352C77.4195 6.90745 77.4616 8.14146 77.4616 9.34537L76.1253 9.43567L74.8431 7.8465L72.1162 7.77427V10.9887L75.9627 10.6456V13.4266L72.1162 13.0113V14.8894C72.1162 15.1783 72.1343 15.3649 72.1704 15.4492C72.2186 15.5335 72.333 15.6178 72.5135 15.702L73.5971 16.3521L73.5429 17.8149H67.6016L67.5113 15.9729Z" fill="black"/>
    <path d="M82.1092 18.0497C80.5802 18.0497 79.4365 17.6584 78.678 16.8758C77.9316 16.0933 77.5584 14.8954 77.5584 13.2822C77.5584 12.2468 77.745 11.3439 78.1182 10.5734C78.5035 9.80286 79.0513 9.21294 79.7616 8.80361C80.4719 8.39428 81.3086 8.18962 82.2717 8.18962C85.3899 8.18962 86.9489 9.80286 86.9489 13.0293C86.9489 14.6065 86.5215 15.8405 85.6668 16.7314C84.824 17.6102 83.6382 18.0497 82.1092 18.0497ZM82.3981 15.9368C82.6389 15.9368 82.8496 15.9187 83.0302 15.8826C83.2108 15.8345 83.4034 15.7622 83.6081 15.6659C83.6803 15.389 83.7405 15.0339 83.7886 14.6005C83.8368 14.167 83.8609 13.7517 83.8609 13.3544C83.8609 12.3792 83.7044 11.6388 83.3914 11.1332C83.0904 10.6275 82.6389 10.3747 82.037 10.3747C81.6397 10.3747 81.2364 10.4289 80.827 10.5372C80.7428 10.7178 80.6765 11.0128 80.6284 11.4221C80.5802 11.8194 80.5561 12.2769 80.5561 12.7946C80.5561 13.8059 80.7127 14.5824 81.0257 15.1242C81.3507 15.6659 81.8082 15.9368 82.3981 15.9368Z" fill="black"/>
    <path d="M92.761 18.0497C91.232 18.0497 90.0883 17.6584 89.3298 16.8758C88.5834 16.0933 88.2102 14.8954 88.2102 13.2822C88.2102 12.2468 88.3968 11.3439 88.77 10.5734C89.1553 9.80286 89.7031 9.21294 90.4134 8.80361C91.1237 8.39428 91.9604 8.18962 92.9235 8.18962C96.0417 8.18962 97.6007 9.80286 97.6007 13.0293C97.6007 14.6065 97.1733 15.8405 96.3186 16.7314C95.4758 17.6102 94.29 18.0497 92.761 18.0497ZM93.0499 15.9368C93.2907 15.9368 93.5014 15.9187 93.682 15.8826C93.8626 15.8345 94.0552 15.7622 94.2599 15.6659C94.3321 15.389 94.3923 15.0339 94.4405 14.6005C94.4886 14.167 94.5127 13.7517 94.5127 13.3544C94.5127 12.3792 94.3562 11.6388 94.0432 11.1332C93.7422 10.6275 93.2907 10.3747 92.6888 10.3747C92.2915 10.3747 91.8882 10.4289 91.4788 10.5372C91.3946 10.7178 91.3283 11.0128 91.2802 11.4221C91.232 11.8194 91.2079 12.2769 91.2079 12.7946C91.2079 13.8059 91.3645 14.5824 91.6775 15.1242C92.0025 15.6659 92.46 15.9368 93.0499 15.9368Z" fill="black"/>
    <path d="M102.546 18.0497C101.39 18.0497 100.487 17.6163 99.8372 16.7494C99.1871 15.8826 98.862 14.7208 98.862 13.2641C98.862 11.5907 99.3014 10.3266 100.18 9.47178C101.071 8.61701 102.335 8.18962 103.973 8.18962C104.069 8.18962 104.382 8.20166 104.912 8.22573V7.14221C104.912 6.87735 104.894 6.70278 104.857 6.61851C104.821 6.53424 104.719 6.44394 104.55 6.34763L103.738 5.93228L103.828 4.55982C104.984 4.35515 105.839 4.2167 106.392 4.14447C106.946 4.0602 107.386 4.01204 107.711 4C107.819 4.2769 107.897 4.58992 107.946 4.93905V15.2144C107.946 15.4312 107.964 15.5816 108 15.6659C108.048 15.7502 108.15 15.8345 108.307 15.9187L108.993 16.3341L108.921 17.4537C107.741 17.7547 106.585 17.9353 105.453 17.9955C105.369 17.7667 105.285 17.4898 105.201 17.1648C104.382 17.7547 103.497 18.0497 102.546 18.0497ZM103.593 15.7381C103.991 15.7381 104.436 15.6057 104.93 15.3409V10.6637C104.569 10.5071 104.105 10.4289 103.539 10.4289C103.082 10.4289 102.642 10.4891 102.221 10.6095C102.125 10.8382 102.046 11.1512 101.986 11.5485C101.938 11.9458 101.914 12.3853 101.914 12.8668C101.914 13.854 102.046 14.5824 102.311 15.0519C102.588 15.5094 103.016 15.7381 103.593 15.7381Z" fill="black"/>
</svg>